<svg height="46" viewBox="0 0 1024 1024" width="46" xmlns="http://www.w3.org/2000/svg"><path d="m998.4 687.64672-312.91904-105.22624s24.04864-35.9936 49.72032-106.5728 29.34784-109.33248 29.34784-109.33248l-202.55744-1.67424v-69.18144l245.30944-1.73056v-48.91136h-245.36064v-111.32928h-120.14592v111.3344h-228.87936v48.91136l228.87936-1.62304v74.20416h-183.58784v38.74816h377.8816s-4.16256 31.45216-18.64704 70.5792-29.39904 73.3952-29.39904 73.3952-177.4336-62.10048-270.92992-62.10048-207.2064 37.56032-218.22976 146.57024c-10.97216 108.9536 52.9664 167.97184 143.0528 189.696 90.09152 21.8368 173.26592-.21504 245.6832-35.67104 72.4224-35.39968 143.488-115.87072 143.488-115.87072l364.69248 177.1008c-14.87872 86.41024-89.856 149.51936-177.536 149.43232h-612.5312c-99.39456.09728-180.03968-80.40448-180.13184-179.79392v-612.864c-.09216-99.39968 80.41472-180.0448 179.80416-180.13184h612.864c99.39456-.09216 180.03968 80.4096 180.13184 179.79904zm-455.59296-60.8s-112.46592 136.94976-244.98176 136.94976c-132.57216 0-160.40448-65.07008-160.40448-111.872 0-46.7456 27.56096-97.60256 140.35456-104.95488 112.73728-7.3472 265.088 79.87712 265.088 79.87712h-.0512z" fill="#02a9f1"/></svg>