<svg height="32" viewBox="0 0 1024 1024" width="32" xmlns="http://www.w3.org/2000/svg"><path d="m346 139.7h-166c-45.7 0-83 37.3-83 83v166c0 45.7 37.3 83 83 83h166c45.7 0 83-37.3 83-83v-166c0-45.6-37.3-83-83-83zm41.5 249c0 22.9-18.6 41.5-41.5 41.5h-166c-22.9 0-41.5-18.6-41.5-41.5v-166c0-22.9 18.6-41.5 41.5-41.5h166c22.9 0 41.5 18.6 41.5 41.5zm-41.5 206.3h-166c-45.7 0-83 37.3-83 83v166c0 45.7 37.3 83 83 83h166c45.7 0 83-37.3 83-83v-166c0-45.7-37.3-83-83-83zm41.5 249c0 22.9-18.6 41.5-41.5 41.5h-166c-22.9 0-41.5-18.6-41.5-41.5v-166c0-22.9 18.6-41.5 41.5-41.5h166c22.9 0 41.5 18.6 41.5 41.5zm413.8-249h-166c-45.6 0-83 37.3-83 83v166c0 45.7 37.4 83 83 83h166c45.7 0 83-37.3 83-83v-166c0-45.7-37.4-83-83-83zm41.5 249c0 22.9-18.6 41.5-41.5 41.5h-166c-22.9 0-41.5-18.6-41.5-41.5v-166c0-22.9 18.6-41.5 41.5-41.5h166c22.9 0 41.5 18.6 41.5 41.5zm60-596.9-125.9-125.9c-32.3-32.3-85.1-32.3-117.4 0l-125.8 125.9c-32.3 32.3-32.3 85.1 0 117.4l125.8 125.8c32.3 32.3 85.1 32.3 117.4 0l125.8-125.8c32.4-32.3 32.4-85.2.1-117.4zm-31.5 88-123.7 123.7c-16.2 16.2-42.5 16.2-58.7 0l-123.7-123.7c-16.2-16.2-16.2-42.5 0-58.7l123.7-123.7c16.2-16.2 42.5-16.2 58.7 0l123.7 123.7c16.2 16.2 16.2 42.5 0 58.7z"/></svg>