<svg height="32" viewBox="0 0 1024 1024" width="32" xmlns="http://www.w3.org/2000/svg"><path d="m189.711248 275.621385h-42.97886c-11.879562 0-21.537526-9.641591-21.537526-21.521153 0-11.864212 9.657964-21.457708 21.537526-21.457708h42.97886c11.879562 0 21.441335 9.593496 21.441335 21.457708 0 11.879562-9.561774 21.521153-21.441335 21.521153zm687.661765 0h-515.746324c-11.879562 0-21.537526-9.641591-21.537526-21.521153 0-11.864212 9.657964-21.457708 21.537526-21.457708h515.746324c11.799744 0 21.441335 9.593496 21.441335 21.457708 0 11.879562-9.641591 21.521153-21.441335 21.521153zm-687.661765 257.873162h-42.97886c-11.879562 0-21.537526-9.641591-21.537526-21.521153 0-11.864212 9.657964-21.457708 21.537526-21.457708h42.97886c11.879562 0 21.441335 9.593496 21.441335 21.457708 0 11.879562-9.561774 21.521153-21.441335 21.521153zm687.661765 0h-515.746324c-11.879562 0-21.537526-9.641591-21.537526-21.521153 0-11.864212 9.657964-21.457708 21.537526-21.457708h515.746324c11.799744 0 21.441335 9.593496 21.441335 21.457708 0 11.879562-9.641591 21.521153-21.441335 21.521153zm-687.661765 257.873162h-42.97886c-11.879562 0-21.537526-9.641591-21.537526-21.521153 0-11.864212 9.657964-21.457708 21.537526-21.457708h42.97886c11.879562 0 21.441335 9.593496 21.441335 21.457708 0 11.879562-9.561774 21.521153-21.441335 21.521153zm687.661765 0h-515.746324c-11.879562 0-21.537526-9.641591-21.537526-21.521153 0-11.864212 9.657964-21.457708 21.537526-21.457708h515.746324c11.799744 0 21.441335 9.593496 21.441335 21.457708 0 11.879562-9.641591 21.521153-21.441335 21.521153z" fill="#333"/></svg>