<svg height="63.94" viewBox="0 0 1025 1024" width="64" xmlns="http://www.w3.org/2000/svg"><path d="m511.05442 633.80384c195.295076 0 357.702583 140.377738 392.154862 325.714544h54.799652c-31.050646-190.273472-180.74194-340.42016-370.656214-372.720323 106.116826-36.237011 182.538952-136.592347 182.538952-255.012974 0-148.919685-120.709873-269.657188-269.632627-269.657188-148.895124 0-269.607044 120.734433-269.607044 269.657188 0 120.813232 79.442048 223.054612 188.906269 257.352364-182.735436 37.485505-325.236637 185.077897-355.430734 370.379909h54.752578c34.470699-185.336806 196.881276-325.71352 392.174306-325.71352zm-226.475689-302.018753c0-119.125719 96.557665-215.732505 215.68236-215.732505 119.122649 0 215.703851 96.603716 215.703851 215.732505 0 119.152326-96.581202 215.758088-215.703851 215.758088-119.125718.000001-215.68236-96.606785-215.68236-215.758088z" fill="#d81e06"/></svg>