<svg height="64" viewBox="0 0 1024 1024" width="64" xmlns="http://www.w3.org/2000/svg"><path d="m352.456912 832.032253c-35.434907 0-63.989249 28.554342-63.989249 63.989249s28.554342 63.989249 63.989249 63.989249 63.989249-28.554342 63.989249-63.989249c.000001-35.434907-28.554342-63.989249-63.989249-63.989249zm448.096758 0c-35.434907 0-63.989249 28.554342-63.989249 63.989249s28.554342 63.989249 63.989249 63.989249 63.989249-28.554342 63.989249-63.989249c.000001-35.434907-28.726356-63.989249-63.989249-63.989249zm63.473207-31.994625h-519.826642c-46.099782 0-86.695112-36.466991-92.199563-83.082815l-54.356459-382.043339-30.790526-178.550648c-1.892155-15.653284-16.169326-28.382328-29.930455-28.382328h-40.939358c-17.717453 0-31.994625-14.277171-31.994625-31.994625s14.277171-31.994625 31.994625-31.994625h40.767344c46.615824 0 87.727196 36.466991 93.403662 83.082815l30.790526 177.86259 54.528473 383.763482c1.720141 14.793214 15.309256 27.350244 28.726356 27.350244h519.826642c17.717453 0 31.994625 14.277171 31.994625 31.994625s-14.277171 31.994624-31.994625 31.994624zm-479.747354-127.978498c-16.685369 0-30.618512-12.729044-31.82261-29.586427-1.376113-17.545439 11.868974-33.026709 29.586427-34.230808l434.163615-31.994625c15.997312-.172014 29.414413-12.55703 31.134554-26.834201l50.400134-288.295649c1.204099-10.664875-1.720141-22.533848-8.084663-29.758441-4.128339-4.644381-9.288762-7.052579-15.309256-7.052579h-554.401478c-17.717453 0-31.994625-14.277171-31.994625-31.994625s14.449185-32.338652 31.994625-32.338652h554.05745c24.426004 0 46.959852 10.148833 63.301193 28.554342 18.749538 21.157736 27.178229 50.744163 23.565933 81.706703l-50.400134 288.467663c-5.504452 44.895683-45.927768 81.362674-92.027549 81.362674l-431.755417 31.82261c-.860072.000001-1.720143.172015-2.408199.172015z" fill="#d81e06"/></svg>