<svg height="18" viewBox="0 0 1024 1024" width="18" xmlns="http://www.w3.org/2000/svg"><path d="m948.516571 277.686857c-38.875428-41.435428-91.282285-6.326857-91.282285-6.326857l-68.315429 68.315429a35.766857 35.766857 0 0 0 -4.717714 3.84l-291.620572 291.657142-187.977142-187.977142c-19.456-19.382857-45.348571-19.382857-64.804572 0-19.456 19.492571-19.456 45.385143 0 64.841142l213.869714 220.342858c6.473143 6.473143 19.456 12.982857 32.402286 12.982857 12.982857 0 19.456-6.509714 38.875429-12.982857l324.059428-324.022858c1.462857-1.462857 2.925714-3.291429 4.315429-5.339428 26.770286-24.978286 57.490286-53.028571 57.490286-53.028572l6.912 14.701715c.475429 1.828571 1.243429 3.437714 2.56 4.754285 19.456 45.348571 25.965714 97.206857 25.965714 149.065143 0 239.798857-194.450286 440.685714-440.722286 440.685715-239.798857 0-440.685714-194.413714-440.685714-440.685715 0-239.798857 194.413714-440.685714 440.685714-440.685714 84.260571 0 168.521143 25.892571 239.798857 71.277714 19.456 6.473143 38.875429 6.473143 51.821715-12.982857 6.509714-6.473143 6.509714-19.419429 6.509714-25.929143 0-12.946286-6.509714-19.419429-12.982857-25.892571-77.750857-58.368-174.957715-84.297143-278.674286-84.297143-285.147429 0-512 233.325714-512 512s226.852571 512 512 512c71.314286 0 136.118857-12.946286 200.923429-38.875429 58.331429-25.965714 116.662857-64.804571 162.011428-110.189714 45.348571-45.348571 84.260571-103.68 110.189714-162.011428a528.091429 528.091429 0 0 0 38.875429-200.923429c0-58.331429-14.043429-132.132571-43.885714-186.404571-21.065143-40.228571-31.597714-47.908571-31.597715-47.908572z" fill="#bfbfbf"/></svg>