<svg height="32" viewBox="0 0 1024 1024" width="32" xmlns="http://www.w3.org/2000/svg"><path d="m418.890567 488.728529h-209.446308c-38.496687 0-69.815436-31.318749-69.815436-69.815436l.000001-209.446307c0-38.496687 31.318749-69.815436 69.815436-69.815436h209.446307c38.496687 0 69.815436 31.318749 69.815436 69.815436v209.445283c-.000001 38.497712-31.318749 69.81646-69.815436 69.81646zm-209.446308-302.533213c-12.832229 0-23.272495 10.440266-23.272495 23.272495v209.445283c0 12.832229 10.440266 23.272495 23.272495 23.272495h209.446307c12.832229 0 23.272495-10.440266 23.272495-23.272495v-209.446308c0-12.832229-10.440266-23.272495-23.272495-23.272495l-209.446307.000001z"/><path d="m814.556765 581.81646h-209.447332c-38.496687 0-69.815436-31.319773-69.815436-69.815436l.000001-302.534238c0-38.496687 31.318749-69.815436 69.815436-69.815436h209.447331c38.496687 0 69.815436 31.318749 69.815436 69.815436v302.533214c-.001025 38.496687-31.319773 69.81646-69.815436 69.81646zm-209.447332-395.621144c-12.831205 0-23.271471 10.440266-23.271471 23.272495v302.533214c0 12.832229 10.439242 23.271471 23.271471 23.271471h209.447331c12.831205 0 23.271471-10.439242 23.271471-23.271471v-302.534239c0-12.832229-10.439242-23.272495-23.271471-23.272495l-209.447331.000001z"/><path d="m418.890567 884.371176h-209.446308c-38.496687 0-69.815436-31.318749-69.815436-69.815436l.000001-209.446307c0-38.496687 31.318749-69.815436 69.815436-69.815436h209.446307c38.496687 0 69.815436 31.318749 69.815436 69.815436v209.447331c-.000001 38.495664-31.318749 69.814412-69.815436 69.814412zm-209.446308-302.533213c-12.832229 0-23.272495 10.439242-23.272495 23.271471v209.447331c0 12.831205 10.440266 23.271471 23.272495 23.271471h209.446307c12.832229 0 23.272495-10.439242 23.272495-23.271471v-209.447332c0-12.831205-10.440266-23.271471-23.272495-23.271471z"/><path d="m814.533214 884.371176h-209.446308c-38.496687 0-69.815436-31.318749-69.815436-69.815436l.000001-116.358376c0-38.496687 31.318749-69.815436 69.815436-69.815436h209.446307c38.496687 0 69.815436 31.318749 69.815436 69.815436v116.359401c-.000001 38.495663-31.318749 69.814411-69.815436 69.814411zm-209.446308-209.445283c-12.831205 0-23.271471 10.439242-23.271471 23.271471v116.359401c0 12.831205 10.439242 23.271471 23.271471 23.271471h209.446307c12.831205 0 23.271471-10.439242 23.271471-23.271471v-116.359401c0-12.831205-10.439242-23.271471-23.271471-23.271471z"/></svg>